<?xml version="1.0" standalone="no"?>
<!DOCTYPE svg PUBLIC "-//W3C//DTD SVG 20010904//EN"
 "http://www.w3.org/TR/2001/REC-SVG-20010904/DTD/svg10.dtd">
<svg version="1.0" xmlns="http://www.w3.org/2000/svg"
 width="200.000000pt" height="200.000000pt" viewBox="0 0 200.000000 200.000000"
 preserveAspectRatio="xMidYMid meet">

<g transform="translate(0.000000,200.000000) scale(0.100000,-0.100000)"
fill="#000000" stroke="none">
<path d="M0 1000 l0 -1000 1000 0 1000 0 0 1000 0 1000 -1000 0 -1000 0 0
-1000z m531 800 c119 -23 224 -105 277 -218 23 -49 27 -70 27 -152 0 -77 -4
-106 -24 -153 l-24 -59 72 -72 c39 -39 71 -75 71 -79 0 -4 -47 -7 -103 -7
l-104 0 -48 53 c-27 28 -102 107 -167 174 -65 66 -118 126 -118 132 0 7 33 11
95 11 90 0 98 -2 122 -26 20 -20 28 -23 34 -12 15 23 10 80 -12 125 -55 115
-207 145 -297 60 -48 -46 -62 -78 -62 -145 0 -102 71 -178 176 -186 43 -4 53
-10 117 -74 59 -59 68 -73 58 -85 -19 -24 -106 -40 -189 -35 -307 19 -458 396
-252 631 46 52 126 97 200 113 71 16 86 16 151 4z m536 -270 c3 -256 4 -266
24 -282 27 -23 106 -24 137 -2 22 15 22 18 22 260 0 193 3 245 13 242 7 -2 49
-42 95 -89 l82 -86 0 -172 c0 -195 -6 -218 -78 -283 -53 -48 -101 -63 -202
-63 -101 0 -167 25 -222 83 -64 68 -68 90 -68 393 l0 270 98 -3 97 -3 2 -265z
m848 180 l0 -85 -70 -5 -70 -5 -5 -275 -5 -275 -95 0 -95 0 -3 278 -2 277 -63
0 -63 0 -70 73 c-38 39 -76 80 -83 90 -13 16 2 17 305 15 l319 -3 0 -85z"/>
</g>
</svg>
